# xmcd
#
# Track frame offsets:
#	150
#	16665
#	33434
#	49611
#	70243
#	88725
#	103851
#	127662
#	156860
#	180686
#	200579
#	214277
#	227884
#	254620
#
# Disc length: 3682 seconds
#
# Revision: 1
# Processed by: cddbd v1.5PL3 Copyright (c) Steve Scherf et al.
# Submitted via: EasyCDDAExtractor 6.2.0.3
#
DISCID=c00e600e
DTITLE=Memphis La Blusera - Hoy es Hoy
DYEAR=1999
DGENRE=Blues
TTITLE0=Caliente
TTITLE1=La Ultima Lagrima
TTITLE2=La Flor Mas Bella
TTITLE3=Hoy Es Hoy
TTITLE4=El Viento Te Lo Dira
TTITLE5=Vuelvo A Casa Mama
TTITLE6=Pais De Pegamento
TTITLE7=Una Ciudad
TTITLE8=Monton De Nada
TTITLE9=La Revolucion
TTITLE10=Sr Basurero
TTITLE11=El Rock And Roll Y Yo
TTITLE12=Cosa De Hombres
TTITLE13=La Bifurcada
EXTD=
EXTT0=
EXTT1=
EXTT2=
EXTT3=
EXTT4=
EXTT5=
EXTT6=
EXTT7=
EXTT8=
EXTT9=
EXTT10=
EXTT11=
EXTT12=
EXTT13=
PLAYORDER=
